<svg xmlns="http://www.w3.org/2000/svg" fill="none" viewBox="0 0 193 70"><path fill="#2c2643" d="M185 0H8a8 8 0 0 0-8 8v54a8 8 0 0 0 8 8h177a8 8 0 0 0 8-8V8a8 8 0 0 0-8-8z"/><g fill="#fff"><path d="M41 34.33a7.81 7.81 0 0 1 3.76-6.57 8.12 8.12 0 0 0-6.38-3.4c-2.68-.29-5.29 1.58-6.65 1.58-1.4 0-3.5-1.56-5.77-1.52a8.5 8.5 0 0 0-7.15 4.32c-3.09 5.3-.78 13.08 2.18 17.36 1.48 2.1 3.21 4.44 5.48 4.36 2.21-.1 3.04-1.4 5.72-1.4 2.65 0 3.42 1.4 5.73 1.34 2.38-.04 3.88-2.1 5.31-4.22a17.26 17.26 0 0 0 2.43-4.89 7.56 7.56 0 0 1-4.67-6.96zM36.63 21.54A7.65 7.65 0 0 0 38.4 16a7.95 7.95 0 0 0-5.13 2.63 7.29 7.29 0 0 0-1.83 5.32c2.01.02 3.92-.88 5.18-2.42zM69.01 45.15h-7.56l-1.82 5.3h-3.2l7.16-19.63h3.33l7.17 19.64h-3.26zm-6.78-2.45h6l-2.96-8.62h-.08zM89.56 43.3c0 4.45-2.4 7.3-6.03 7.3a4.92 4.92 0 0 1-4.56-2.5h-.07v7.1h-2.97V36.14h2.88v2.38h.05a5.14 5.14 0 0 1 4.61-2.53c3.67 0 6.1 2.87 6.1 7.3zm-3.05 0c0-2.9-1.51-4.8-3.82-4.8-2.27 0-3.8 1.94-3.8 4.8 0 2.88 1.53 4.82 3.8 4.82 2.3 0 3.82-1.9 3.82-4.82zM105.49 43.3c0 4.45-2.4 7.3-6.04 7.3a4.92 4.92 0 0 1-4.55-2.5h-.07v7.1h-2.97V36.14h2.87v2.38h.06a5.14 5.14 0 0 1 4.6-2.53c3.68 0 6.1 2.87 6.1 7.3zm-3.05 0c0-2.9-1.52-4.8-3.83-4.8-2.27 0-3.8 1.94-3.8 4.8 0 2.88 1.53 4.82 3.8 4.82 2.31 0 3.83-1.9 3.83-4.82zM116.02 44.98c.22 1.95 2.13 3.23 4.74 3.23 2.5 0 4.3-1.28 4.3-3.03 0-1.53-1.08-2.44-3.65-3.07l-2.58-.61c-3.64-.87-5.33-2.56-5.33-5.3 0-3.38 2.98-5.71 7.22-5.71 4.2 0 7.07 2.33 7.16 5.72h-3c-.17-1.97-1.81-3.15-4.2-3.15-2.4 0-4.03 1.2-4.03 2.94 0 1.39 1.04 2.2 3.6 2.83l2.19.53c4.07.96 5.76 2.58 5.76 5.45 0 3.67-2.96 5.98-7.66 5.98-4.4 0-7.37-2.25-7.56-5.8zM134.61 32.75v3.39h2.75v2.32h-2.75v7.9c0 1.23.55 1.8 1.76 1.8.33 0 .65-.03.98-.07v2.31c-.55.1-1.1.15-1.65.14-2.93 0-4.07-1.09-4.07-3.87v-8.2h-2.1v-2.33h2.1v-3.4zM138.96 43.3c0-4.5 2.68-7.34 6.86-7.34 4.2 0 6.86 2.83 6.86 7.34 0 4.52-2.65 7.34-6.86 7.34-4.2 0-6.86-2.82-6.86-7.34zm10.7 0c0-3.1-1.44-4.92-3.84-4.92s-3.84 1.84-3.84 4.92c0 3.1 1.43 4.91 3.84 4.91 2.4 0 3.84-1.8 3.84-4.91zM155.13 36.14h2.84v2.43h.06a3.45 3.45 0 0 1 3.48-2.58c.35 0 .69.03 1.02.1v2.76a4.2 4.2 0 0 0-1.33-.18c-.88-.04-1.72.3-2.32.94s-.88 1.5-.78 2.35v8.5h-2.97zM176.22 46.25c-.4 2.6-2.95 4.39-6.23 4.39-4.2 0-6.82-2.8-6.82-7.27 0-4.5 2.63-7.4 6.7-7.4 4 0 6.52 2.71 6.52 7.05v1.01h-10.22v.18a3.71 3.71 0 0 0 1.02 2.9c.75.77 1.8 1.2 2.87 1.16 1.44.13 2.8-.69 3.34-2.02zm-10.04-4.27h7.24c.05-.96-.3-1.9-.97-2.59a3.5 3.5 0 0 0-2.58-1.05 3.65 3.65 0 0 0-3.69 3.63zM58.03 20.75c0-3.06 1.64-4.95 4.3-4.95a3.8 3.8 0 0 1 3.96 3.27H64.8a2.45 2.45 0 0 0-2.49-1.9c-1.71 0-2.78 1.38-2.78 3.58s1.07 3.58 2.79 3.58a2.39 2.39 0 0 0 2.48-1.74h1.48a3.71 3.71 0 0 1-3.96 3.1c-2.65 0-4.3-1.88-4.3-4.94zM67.9 21.9a3.36 3.36 0 0 1 1.6-3.18c1.1-.68 2.5-.68 3.6 0a3.36 3.36 0 0 1 1.6 3.18 3.36 3.36 0 0 1-1.6 3.2c-1.1.68-2.5.68-3.6 0a3.36 3.36 0 0 1-1.6-3.2zm5.34 0c0-1.54-.7-2.44-1.94-2.44-1.23 0-1.92.9-1.92 2.44 0 1.56.69 2.46 1.92 2.46s1.94-.9 1.94-2.46zM76.6 18.35h1.37v1.13h.1a2.16 2.16 0 0 1 2.15-1.27c.71-.05 1.4.22 1.9.73.48.52.7 1.22.6 1.92v4.6h-1.43v-4.25c0-1.14-.5-1.71-1.55-1.71a1.62 1.62 0 0 0-1.72 1.8v4.17H76.6zM87.54 18.2c1.62 0 2.68.75 2.82 2.01h-1.37c-.13-.52-.64-.86-1.45-.86-.8 0-1.4.38-1.4.93 0 .43.37.7 1.15.87l1.2.28c1.36.31 2 .9 2 1.94 0 1.34-1.26 2.24-2.98 2.24-1.7 0-2.82-.77-2.95-2.03h1.42c.25.62.9.98 1.57.89.88 0 1.51-.4 1.51-.96 0-.43-.34-.7-1.06-.87l-1.25-.3c-1.37-.31-2-.92-2-1.98 0-1.26 1.16-2.15 2.8-2.15zM92.29 17.16l1.66-2.25h1.66l-1.85 2.25zm.15 1.19h1.41v7.12h-1.41zM96.06 26.18h1.45c.12.52.73.85 1.68.85 1.19 0 1.89-.55 1.89-1.5v-1.36h-.1a2.43 2.43 0 0 1-2.23 1.2c-1.84 0-2.97-1.41-2.97-3.54 0-2.18 1.15-3.6 2.98-3.6a2.5 2.5 0 0 1 2.27 1.25h.1v-1.13h1.37v7.18c0 1.63-1.3 2.66-3.33 2.66-1.8 0-2.96-.8-3.1-2zm5.04-4.36c0-1.42-.74-2.33-1.95-2.33-1.22 0-1.9.91-1.9 2.33s.68 2.33 1.9 2.33c1.22 0 1.95-.9 1.95-2.33zM110.83 25.47h-1.37v-1.13h-.11a2.16 2.16 0 0 1-2.18 1.27c-.7.05-1.4-.22-1.87-.73a2.3 2.3 0 0 1-.6-1.9v-4.63h1.42v4.25c0 1.16.46 1.7 1.5 1.7.5.05.98-.12 1.33-.47.34-.35.51-.83.46-1.32v-4.16h1.42zM119.18 23.55a2.92 2.92 0 0 1-3.12 2.06 3.29 3.29 0 0 1-2.52-1.08 3.21 3.21 0 0 1-.8-2.6c-.13-.94.16-1.9.8-2.61a3.34 3.34 0 0 1 2.51-1.11c2 0 3.21 1.35 3.21 3.59v.49h-5.08v.08c-.04.53.14 1.05.5 1.44.37.39.88.6 1.42.6.7.08 1.37-.26 1.7-.86zm-5-2.3h3.64a1.75 1.75 0 0 0-1.77-1.85c-.5 0-.98.2-1.33.54s-.55.82-.54 1.31zM121.23 15.57h1.43v9.9h-1.42zM124.63 21.9c-.12-1.27.5-2.5 1.6-3.18s2.49-.68 3.6 0 1.71 1.9 1.59 3.18a3.36 3.36 0 0 1-1.6 3.2c-1.1.68-2.5.68-3.6 0a3.37 3.37 0 0 1-1.6-3.2zm5.33 0c0-1.54-.7-2.44-1.93-2.44-1.24 0-1.93.9-1.93 2.44 0 1.56.7 2.46 1.93 2.46s1.93-.9 1.93-2.46zM143.31 23.55a2.92 2.92 0 0 1-3.12 2.06 3.28 3.28 0 0 1-2.52-1.08 3.21 3.21 0 0 1-.8-2.6c-.13-.94.17-1.9.8-2.61a3.33 3.33 0 0 1 2.52-1.11c2 0 3.2 1.35 3.2 3.59v.49h-5.07v.08c-.05.53.14 1.05.5 1.44.36.39.88.6 1.41.6.7.08 1.37-.26 1.72-.86zm-5-2.3h3.64a1.7 1.7 0 0 0-.47-1.31c-.34-.35-.8-.55-1.3-.53a1.82 1.82 0 0 0-1.86 1.85zM145.3 18.35h1.37v1.13h.11a2.16 2.16 0 0 1 2.15-1.27c.7-.05 1.4.22 1.89.73.48.52.7 1.22.6 1.92v4.6H150v-4.25c0-1.14-.5-1.71-1.56-1.71a1.62 1.62 0 0 0-1.72 1.8v4.17h-1.41zM163.6 23.55a2.92 2.92 0 0 1-3.11 2.06 3.28 3.28 0 0 1-2.53-1.08 3.21 3.21 0 0 1-.8-2.6c-.13-.94.17-1.9.8-2.61a3.33 3.33 0 0 1 2.52-1.11c2 0 3.21 1.35 3.21 3.59v.49h-5.08v.08c-.05.53.14 1.05.5 1.44.37.39.88.6 1.42.6.69.08 1.37-.26 1.7-.86zm-5-2.3h3.64a1.7 1.7 0 0 0-.47-1.31c-.34-.35-.8-.55-1.3-.53a1.81 1.81 0 0 0-1.86 1.85zM165.66 15.57h1.42v9.9h-1.42z"/></g></svg>