<svg xmlns="http://www.w3.org/2000/svg" fill="none" viewBox="0 0 193 70"><linearGradient id="b" x1="27.88" x2="17.95" y1="26.26" y2="20.25" gradientUnits="userSpaceOnUse"><stop offset="0" stop-color="#00f076"/><stop offset="1" stop-color="#0be070"/></linearGradient><linearGradient id="c" x1="21.15" x2="24.23" y1="32.16" y2="28.83" gradientUnits="userSpaceOnUse"><stop offset="0" stop-color="#00e2ff"/><stop offset="1" stop-color="#01c4f7"/></linearGradient><linearGradient id="d" x1="17.37" x2="25.19" y1="48.19" y2="44.64" gradientUnits="userSpaceOnUse"><stop offset="0" stop-color="#eb214e"/><stop offset="1" stop-color="#ff3a44"/></linearGradient><linearGradient id="e" x1="38.95" x2="31.72" y1="35.56" y2="35.56" gradientUnits="userSpaceOnUse"><stop offset="0" stop-color="#ffd902"/><stop offset="1" stop-color="#ffbd00"/></linearGradient><clipPath id="a"><path d="M0 0h193v70H0z"/></clipPath><g clip-path="url(#a)"><path fill="#2c2643" d="M182 0H11.2A11.2 11.2 0 0 0 0 11.2v47.6A11.2 11.2 0 0 0 11.2 70H182a11.2 11.2 0 0 0 11.2-11.2V11.2A11.2 11.2 0 0 0 182 0z"/><g fill="#fff"><path d="M57.52 24.88v-8.65h2.6c1.3 0 2.46.43 3.18 1.15.87.87 1.16 1.88 1.16 3.17s-.44 2.3-1.16 3.17a4.51 4.51 0 0 1-3.18 1.16zm1.15-1.01h1.6c1 0 1.73-.3 2.3-.87.59-.57.87-1.44.87-2.45s-.28-1.87-.86-2.45a3.3 3.3 0 0 0-2.32-.86h-1.59zM66.05 24.88v-8.65h1.15v8.65zM71.69 25.02c-.58 0-1.3-.14-1.88-.58-.58-.43-1.01-1-1.16-1.73l1.01-.43c.15.43.44.87.73 1.16.43.28.86.43 1.3.43.43 0 .87-.15 1.3-.43.29-.3.58-.58.58-1.01 0-.44-.15-.87-.58-1.16a3.27 3.27 0 0 0-1.6-.72 9.64 9.64 0 0 1-1.73-.86 1.85 1.85 0 0 1-.57-1.44c0-.58.28-1.15.72-1.59a2.75 2.75 0 0 1 1.88-.72c.72 0 1.3.15 1.73.58.44.43.73.72.87 1.15l-1.01.43c-.15-.28-.29-.57-.58-.72-.29-.28-.72-.28-1.16-.28-.43 0-.72.14-1.15.28-.15.3-.3.58-.3 1.01 0 .29.15.58.44.87.3.28.72.43 1.3.57.44.15.73.3 1.02.44s.57.28.86.57c.3.15.58.43.73.87.14.28.29.72.29 1.15 0 .43-.15.86-.3 1.15-.14.29-.43.58-.72.72-.43 0-.72.15-1 .15-.3.14-.73.14-1.02.14zM77.33 24.88h-1.16v-8.65h2.9c.72 0 1.3.29 1.87.72.58.43.87 1.15.87 1.87s-.29 1.3-.87 1.88c-.58.43-1.15.72-1.88.72h-1.73zm0-4.61h1.88c.43 0 .87-.15 1.15-.44.3-.29.44-.72.44-1 0-.44-.15-.73-.44-1.01a1.65 1.65 0 0 0-1.15-.44h-1.88zM90.34 23.72a4.26 4.26 0 0 1-3.18 1.3c-1.3 0-2.31-.43-3.18-1.3-.87-.86-1.3-1.87-1.3-3.17s.43-2.3 1.3-3.17a4.26 4.26 0 0 1 3.18-1.3c1.3 0 2.32.44 3.18 1.3s1.3 1.88 1.3 3.17-.43 2.3-1.3 3.17zm-5.5-.72c.59.58 1.45 1.01 2.32 1.01s1.74-.29 2.32-1c.57-.58 1-1.45 1-2.46s-.28-1.87-1-2.45c-.58-.57-1.45-1-2.32-1s-1.73.28-2.31 1c-.58.58-1.01 1.44-1.01 2.45s.28 1.88 1 2.45zM93.24 24.88v-8.65h1.3l4.2 6.77v-6.77h1.15v8.65h-1.16l-4.48-7.06v7.06zM101.91 24.88v-8.65h1.16v8.65zM104.95 24.88v-8.65h3.18c.72 0 1.3.29 1.74.72.43.43.72 1.01.72 1.73 0 .43-.15.72-.29 1.15-.14.3-.43.58-.87.72.44.15.72.44 1.01.72.3.3.44.72.44 1.3 0 .72-.3 1.3-.72 1.73-.58.43-1.16.72-1.88.72h-3.33zm1.16-4.9h2.02c.44 0 .72-.15 1.01-.44.3-.28.44-.57.44-.86s-.3-.72-.44-1a1.31 1.31 0 0 0-1-.44h-2.03zm0 3.89h2.31c.43 0 .72-.15 1.01-.43.3-.3.44-.58.44-1.01 0-.3-.15-.72-.44-1.01a1.31 1.31 0 0 0-1.01-.43h-2.17v2.88zM112.32 24.88v-8.65h1.16v7.64h3.76v1zM123.75 17.24h-3.9v2.74h3.61v1h-3.62v2.74h3.9v1.16h-5.05v-8.65h5.06zM133.44 17.24h-3.9v2.74h3.6v1h-3.6v2.74h3.9v1.16h-5.06v-8.65h5.06zM135.17 24.88v-8.65h1.3l4.2 6.77v-6.77h1.16v8.65h-1.16l-4.48-7.06v7.06zM152.05 49.1h2.69V31.09h-2.7zm24.24-11.53-3.08 7.81h-.1l-3.2-7.8h-2.9l4.8 10.9-2.73 6.08h2.8l7.4-16.99zm-15.26 9.48c-.88 0-2.11-.44-2.11-1.53 0-1.39 1.53-1.92 2.85-1.92 1.18 0 1.74.25 2.46.6a3.26 3.26 0 0 1-3.2 2.85zm.32-9.87c-1.95 0-3.96.86-4.8 2.76l2.39 1c.51-1 1.46-1.33 2.46-1.33 1.4 0 2.8.84 2.83 2.32v.18a5.96 5.96 0 0 0-2.8-.69c-2.58 0-5.2 1.41-5.2 4.05 0 2.41 2.1 3.97 4.47 3.97 1.81 0 2.81-.81 3.44-1.77h.09v1.4h2.6v-6.9c0-3.2-2.4-5-5.48-5zm-16.63 2.59h-3.83v-6.18h3.83a3.12 3.12 0 0 1 3.15 3.09c0 1.4-1.14 3.09-3.15 3.09zm-.07-8.68h-6.45v18h2.69v-6.82h3.76c2.98 0 5.91-2.15 5.91-5.59s-2.93-5.6-5.91-5.6zm-35.17 15.96c-1.86 0-3.42-1.55-3.42-3.69 0-2.16 1.56-3.73 3.42-3.73 1.83 0 3.27 1.57 3.27 3.73 0 2.14-1.44 3.7-3.27 3.7zm3.09-8.47h-.1a4.26 4.26 0 0 0-3.23-1.37 6.1 6.1 0 0 0-5.88 6.15c0 3.44 2.82 6.1 5.88 6.1 1.47 0 2.63-.64 3.23-1.39h.1v.89c0 2.34-1.26 3.6-3.28 3.6a3.4 3.4 0 0 1-3.1-2.19l-2.34.98a5.85 5.85 0 0 0 5.44 3.62c3.16 0 5.83-1.86 5.83-6.39v-11h-2.55zm4.41 10.52h2.7V31.09h-2.7zm6.67-5.95a3.36 3.36 0 0 1 3.2-3.57c1.08 0 1.99.54 2.29 1.3zm8.37-2.04c-.51-1.37-2.07-3.9-5.25-3.9-3.16 0-5.8 2.49-5.8 6.13a6 6 0 0 0 6.1 6.13 6.1 6.1 0 0 0 5.11-2.72l-2.09-1.4a3.5 3.5 0 0 1-3.02 1.7 3.12 3.12 0 0 1-2.97-1.85l8.2-3.4zM66.66 39.1v2.6h6.23a5.41 5.41 0 0 1-1.42 3.27c-.9.91-2.33 1.9-4.81 1.9-3.84 0-6.84-3.08-6.84-6.9a6.84 6.84 0 0 1 11.53-5.07l1.84-1.83a9.09 9.09 0 0 0-6.53-2.62 9.66 9.66 0 0 0-9.67 9.51 9.66 9.66 0 0 0 9.67 9.52c2.83 0 4.97-.93 6.64-2.67 1.72-1.72 2.26-4.13 2.26-6.08 0-.6-.05-1.16-.14-1.63zm15.98 7.96c-1.86 0-3.46-1.53-3.46-3.71 0-2.2 1.6-3.71 3.46-3.71 1.86 0 3.46 1.5 3.46 3.71 0 2.18-1.6 3.71-3.46 3.71zm0-9.84a6.04 6.04 0 0 0-6.16 6.13 6.06 6.06 0 0 0 6.16 6.13c3.4 0 6.16-2.6 6.16-6.13a6.04 6.04 0 0 0-6.16-6.13zm13.44 9.84c-1.86 0-3.47-1.53-3.47-3.71 0-2.2 1.6-3.71 3.47-3.71s3.46 1.5 3.46 3.71c0 2.18-1.6 3.71-3.46 3.71zm0-9.84a6.04 6.04 0 0 0-6.16 6.13c0 3.53 2.76 6.13 6.16 6.13s6.15-2.6 6.15-6.13a6.04 6.04 0 0 0-6.15-6.13z"/></g><path fill="url(#b)" d="M37.8 29.47 16.44 17.3a2.23 2.23 0 0 0-2.62.3l17.9 17.94z"/><path fill="url(#c)" d="M13.82 17.6c-.44.4-.73.97-.73 1.65v32.69c0 .62.24 1.15.62 1.54l18.01-17.95z"/><path fill="url(#d)" d="M13.7 53.48c.68.7 1.78.96 2.75.41l21.38-12.24-6.11-6.12z"/><path fill="url(#e)" d="m45.04 33.6-7.25-4.13-6.07 6.06 6.1 6.12 7.22-4.13a2.25 2.25 0 0 0 0-3.91z"/></g></svg>